<?xml version="1.0" encoding="iso-8859-1"?>
<!-- Uploaded to: SVG Repo, www.svgrepo.com, Generator: SVG Repo Mixer Tools -->
<svg version="1.1" id="Layer_1" xmlns="http://www.w3.org/2000/svg" xmlns:xlink="http://www.w3.org/1999/xlink" 
	 viewBox="0 0 512 512" xml:space="preserve">
<polyline style="fill:#743E13;" points="240,130 508,130 508,358 240,358 "/>
<path style="fill:#140500;" d="M508,362H240c-2.4,0-4-1.6-4-4s1.6-4,4-4h264V134H240c-2.4,0-4-1.6-4-4s1.6-4,4-4h268
	c2.4,0,4,1.6,4,4v228C512,360.4,510.4,362,508,362z"/>
<rect x="28" y="358" style="fill:#554542;" width="24" height="24"/>
<path style="fill:#140500;" d="M52,386H28c-2.4,0-4-1.6-4-4v-24c0-2.4,1.6-4,4-4h24c2.4,0,4,1.6,4,4v24C56,384.4,54.4,386,52,386z
	 M32,378h16v-16H32V378z"/>
<rect x="240" y="358" style="fill:#554542;" width="24" height="24"/>
<path style="fill:#140500;" d="M264,386h-24c-2.4,0-4-1.6-4-4v-24c0-2.4,1.6-4,4-4h24c2.4,0,4,1.6,4,4v24
	C268,384.4,266.4,386,264,386z M244,378h16v-16h-16V378z"/>
<rect x="460" y="358" style="fill:#554542;" width="28" height="24"/>
<path style="fill:#140500;" d="M488,386h-28c-2.4,0-4-1.6-4-4v-24c0-2.4,1.6-4,4-4h28c2.4,0,4,1.6,4,4v24
	C492,384.4,490.4,386,488,386z M464,378h20v-16h-20V378z"/>
<path style="fill:#895129;" d="M288,358h-36H40H4V161.2C4,136.4,20.8,130,40,130h212.4c18.8,0,36,6.4,36,31.2V358H288z"/>
<g>
	<path style="fill:#140500;" d="M288,362H4c-2.4,0-4-1.6-4-4V161.2c0-16,6.8-35.2,40-35.2h212.4c32.8,0,40,19.2,40,35.2V358
		C292,360.4,290.4,362,288,362z M8,354h276V161.2c0-18.4-10-27.2-32-27.2H40c-21.6,0-32,8.8-32,27.2V354z"/>
	<path style="fill:#140500;" d="M144,362c-2.4,0-4-1.6-4-4V130c0-2.4,1.6-4,4-4s4,1.6,4,4v228C148,360.4,146.4,362,144,362z"/>
	<path style="fill:#140500;" d="M120,274c-2.4,0-4-1.6-4-4v-48c0-2.4,1.6-4,4-4s4,1.6,4,4v48C124,272.4,122.4,274,120,274z"/>
	<path style="fill:#140500;" d="M164,274c-2.4,0-4-1.6-4-4v-48c0-2.4,1.6-4,4-4s4,1.6,4,4v48C168,272.4,166.4,274,164,274z"/>
	<path style="fill:#140500;" d="M444,290H288c-2.4,0-4-1.6-4-4s1.6-4,4-4h156c2.4,0,4,1.6,4,4S446.4,290,444,290z"/>
	<path style="fill:#140500;" d="M508,290h-28c-2.4,0-4-1.6-4-4s1.6-4,4-4h28c2.4,0,4,1.6,4,4S510.4,290,508,290z"/>
	<path style="fill:#140500;" d="M444,210H288c-2.4,0-4-1.6-4-4s1.6-4,4-4h156c2.4,0,4,1.6,4,4S446.4,210,444,210z"/>
	<path style="fill:#140500;" d="M508,210h-28c-2.4,0-4-1.6-4-4s1.6-4,4-4h28c2.4,0,4,1.6,4,4S510.4,210,508,210z"/>
</g>
</svg>