<?xml version="1.0" encoding="UTF-8"?>
<svg version="1.1" xmlns="http://www.w3.org/2000/svg" width="512" height="512">
<path d="M0 0 C1.26811523 -0.01260864 2.53623047 -0.02521729 3.84277344 -0.03820801 C5.22331295 -0.03104817 6.60384739 -0.02284418 7.984375 -0.01367188 C9.40397406 -0.0163675 10.82357131 -0.02025051 12.24316406 -0.02526855 C15.21567394 -0.03116045 18.18770241 -0.02261142 21.16015625 -0.00390625 C24.96696287 0.01888413 28.77264149 0.00575925 32.57940674 -0.01819611 C35.51001456 -0.03266301 38.44035574 -0.02804423 41.37097168 -0.01768494 C42.77437474 -0.01502007 44.17780215 -0.01827905 45.58117676 -0.02760315 C47.54369635 -0.03778128 49.50630102 -0.01951228 51.46875 0 C52.58475586 0.00318237 53.70076172 0.00636475 54.85058594 0.00964355 C58.40152676 0.63508653 59.5847534 1.66714246 61.734375 4.51757812 C62.25195312 7.84570312 62.25195312 7.84570312 62.265625 11.76757812 C62.2694519 12.46270508 62.27327881 13.15783203 62.27722168 13.87402344 C62.2799368 15.33985853 62.27260335 16.8057424 62.25585938 18.27148438 C62.23443919 20.51086787 62.25566943 22.74704399 62.28125 24.98632812 C62.27860665 26.41341851 62.2734815 27.84050691 62.265625 29.26757812 C62.26111328 30.56179687 62.25660156 31.85601563 62.25195312 33.18945312 C61.734375 36.51757812 61.734375 36.51757812 57.734375 40.51757812 C53.774375 40.51757812 49.814375 40.51757812 45.734375 40.51757812 C45.734375 109.15757813 45.734375 177.79757813 45.734375 248.51757812 C56.294375 248.18757812 66.854375 247.85757813 77.734375 247.51757812 C77.00734375 242.76383789 76.2803125 238.01009766 75.53125 233.11230469 C73.12826515 217.39152273 70.73500913 201.66927115 68.34674072 185.9462471 C66.89875018 176.41508136 65.44745939 166.88444041 63.98828125 157.35498047 C62.71588638 149.04528988 61.44980336 140.73466586 60.19116592 132.42287993 C59.5250376 128.02536964 58.8558429 123.62837742 58.17907715 119.23249054 C57.54096993 115.08704327 56.91136932 110.94038947 56.28800964 106.79269981 C56.05891693 105.27823675 55.82683474 103.76422209 55.59138489 102.25073433 C52.55487542 82.70286645 52.55487542 82.70286645 53.734375 76.51757812 C56.17734917 73.42934357 57.10925645 72.61479433 61.0625 72 C62.35671875 71.99548828 63.6509375 71.99097656 64.984375 71.98632812 C65.67950195 71.98250122 66.37462891 71.97867432 67.09082031 71.97473145 C68.55665541 71.97201633 70.02253928 71.97934977 71.48828125 71.99609375 C73.72766475 72.01751394 75.96384087 71.9962837 78.203125 71.97070312 C79.63021539 71.97334648 81.05730379 71.97847162 82.484375 71.98632812 C84.42570312 71.9930957 84.42570312 71.9930957 86.40625 72 C90.41944606 72.62411793 91.2656777 73.35762791 93.734375 76.51757812 C94.69505024 79.85225201 94.69505024 79.85225201 95.33113098 83.77922058 C95.44975614 84.48578551 95.56838131 85.19235043 95.69060117 85.92032641 C96.05491485 88.11712666 96.39626164 90.31661003 96.734375 92.51757812 C96.9417951 93.80325495 97.1492152 95.08893177 97.36292076 96.4135685 C97.99258811 100.383 98.59305175 104.35631215 99.1862793 108.33129883 C99.41307849 109.8361977 99.64012685 111.34105903 99.86740112 112.84588623 C100.4752459 116.8756053 101.07950461 120.90585406 101.68292594 124.93623757 C102.31768342 129.17246509 102.95543116 133.4082426 103.59272766 137.64408875 C104.65964124 144.73857654 105.72421913 151.83341176 106.78735352 158.9284668 C108.01639183 167.13052995 109.24910703 175.33203419 110.48375958 183.53325397 C111.67488999 191.44590069 112.86353302 199.3589191 114.05100441 207.27211571 C114.55538833 210.63301702 115.06063197 213.99378743 115.56656456 217.35445595 C116.16040361 221.2998458 116.75206398 225.24555631 117.34202194 229.19152832 C117.55895156 230.64008602 117.77663396 232.08853122 117.99511528 233.5368557 C118.29257852 235.50960066 118.58706792 237.48279337 118.88139343 239.45600891 C119.04710689 240.56073705 119.21282034 241.66546518 119.38355541 242.80366993 C119.734375 245.51757812 119.734375 245.51757812 119.734375 248.51757812 C120.98734375 248.47117188 122.2403125 248.42476562 123.53125 248.37695312 C125.18226781 248.33942999 126.83331142 248.30303041 128.484375 248.26757812 C129.309375 248.2340625 130.134375 248.20054687 130.984375 248.16601562 C131.78359375 248.153125 132.5828125 248.14023438 133.40625 248.12695312 C134.1394043 248.10600586 134.87255859 248.08505859 135.62792969 248.06347656 C138.76588242 248.7399476 139.85952753 249.93433953 141.734375 252.51757812 C142.25195312 255.84570312 142.25195312 255.84570312 142.265625 259.76757812 C142.2694519 260.46270508 142.27327881 261.15783203 142.27722168 261.87402344 C142.2799368 263.33985853 142.27260335 264.8057424 142.25585938 266.27148438 C142.23443919 268.51086787 142.25566943 270.74704399 142.28125 272.98632812 C142.27860665 274.41341851 142.2734815 275.84050691 142.265625 277.26757812 C142.26111328 278.56179688 142.25660156 279.85601562 142.25195312 281.18945312 C141.734375 284.51757812 141.734375 284.51757812 139.88964844 286.94628906 C135.75050332 289.96390777 130.63151469 288.73049724 125.734375 288.51757812 C125.91610166 289.44923672 126.09782831 290.38089531 126.28506184 291.34078598 C128.36040923 302.11394685 130.09445941 312.92203768 131.73706055 323.76855469 C132.02300203 325.64307836 132.30916164 327.51756877 132.59552002 329.39202881 C133.36469691 334.43261786 134.13020186 339.47375727 134.89450049 344.51508808 C135.37327156 347.67256572 135.85268649 350.82994499 136.33228493 353.98729706 C137.83633797 363.89031336 139.33809715 373.79367345 140.83653802 383.69754052 C142.55996575 395.08828744 144.29108247 406.47783091 146.02880448 417.86640573 C147.37695608 426.70496135 148.71826289 435.54453896 150.05443031 444.38491416 C150.85047196 449.65068731 151.64934609 454.91599211 152.45538902 460.18024445 C153.21262219 465.1269699 153.96130713 470.07491621 154.70361328 475.02390289 C154.97625994 476.83186108 155.25189802 478.63937127 155.53086281 480.44636536 C158.9462802 502.59788392 158.9462802 502.59788392 157.734375 508.51757812 C155.28582448 511.59552279 154.35673205 512.42079138 150.40625 513.03515625 C148.46492188 513.04192383 148.46492188 513.04192383 146.484375 513.04882812 C145.78924805 513.05265503 145.09412109 513.05648193 144.37792969 513.0604248 C142.91209459 513.06313992 141.44621072 513.05580648 139.98046875 513.0390625 C137.74108525 513.01764231 135.50490913 513.03887255 133.265625 513.06445312 C131.83853461 513.06180977 130.41144621 513.05668463 128.984375 513.04882812 C127.69015625 513.04431641 126.3959375 513.03980469 125.0625 513.03515625 C121.05619 512.41210921 120.20589732 511.66339154 117.734375 508.51757812 C116.79777527 505.33584595 116.79777527 505.33584595 116.18041992 501.52783203 C116.06306834 500.82932947 115.94571676 500.13082691 115.82480907 499.41115761 C115.44435664 497.11569598 115.08837064 494.81725685 114.734375 492.51757812 C114.48269039 490.94688786 114.23029096 489.37631198 113.97720337 487.80584717 C113.15676792 482.65914821 112.37563628 477.50677566 111.59765625 472.35351562 C111.31059784 470.46259819 111.02342003 468.57169887 110.73612976 466.68081665 C110.1401082 462.75315816 109.54625621 458.82517912 108.95385742 454.89697266 C108.19556902 449.87067406 107.43059868 444.84541726 106.66390705 439.82039452 C106.0714661 435.93122445 105.48310851 432.04144486 104.89592552 428.15147781 C104.61543867 426.2973588 104.33355589 424.44345037 104.05022621 422.58976364 C103.65595114 420.00691396 103.26733413 417.42327286 102.88012695 414.83935547 C102.76328049 414.08190033 102.64643402 413.32444519 102.52604675 412.54403687 C101.91591478 408.42759094 101.734375 404.72233712 101.734375 400.51757812 C51.574375 400.51757812 1.414375 400.51757812 -50.265625 400.51757812 C-50.760625 406.45757812 -50.760625 406.45757812 -51.265625 412.51757812 C-51.68519287 415.79495162 -52.12660454 419.05566707 -52.61669922 422.32177734 C-52.74857635 423.22097397 -52.88045349 424.12017059 -53.0163269 425.0466156 C-53.44677889 427.9724729 -53.88305395 430.89741831 -54.3203125 433.82226562 C-54.62562262 435.87581761 -54.9308892 437.92937608 -55.2361145 439.98294067 C-55.87371737 444.2647868 -56.51475984 448.54610292 -57.15771484 452.82714844 C-57.97992787 458.30649286 -58.78896306 463.78769779 -59.59492302 469.26945305 C-60.21941816 473.50157573 -60.85312483 477.73228173 -61.4893837 481.9626503 C-61.7917579 483.98351201 -62.09075243 486.00488247 -62.38625717 488.0267601 C-62.79972935 490.84930906 -63.22614357 493.66961595 -63.65576172 496.48974609 C-63.83359192 497.73353783 -63.83359192 497.73353783 -64.01501465 499.00245667 C-64.74003792 503.65686607 -65.77109459 507.42937683 -68.265625 511.51757812 C-72.75912388 513.76432757 -78.8711108 512.78614415 -83.86865234 512.81274414 C-86.12529191 512.82996114 -88.38046737 512.87384935 -90.63671875 512.91796875 C-92.0729059 512.92809572 -93.5091055 512.93661182 -94.9453125 512.94335938 C-96.90573486 512.96523315 -96.90573486 512.96523315 -98.90576172 512.98754883 C-102.90186978 512.42858153 -103.79679554 511.61957962 -106.265625 508.51757812 C-108.38417952 498.54178958 -104.97291752 486.34387508 -103.43579102 476.38452148 C-103.13124488 474.36805397 -102.82747368 472.35146929 -102.52441406 470.33477783 C-101.70389853 464.89000361 -100.8724247 459.44695513 -100.0387547 454.00418162 C-99.1669805 448.30103492 -98.30490357 442.59642224 -97.44163513 436.89198303 C-95.99231859 427.32429849 -94.53639362 417.75763908 -93.07592773 408.19165039 C-91.20013898 395.90510854 -89.33507781 383.61696359 -87.47345066 371.328269 C-85.8724778 360.76056615 -84.26688231 350.19356647 -82.66039538 339.62670064 C-82.14399784 336.22891214 -81.62818538 332.83103516 -81.11242867 329.43314934 C-80.30334447 324.10491632 -79.49139018 318.77712816 -78.67717743 313.44967651 C-78.37835428 311.49180955 -78.08043421 309.53380451 -77.78346825 307.57565498 C-77.3790432 304.91011284 -76.97134668 302.24509176 -76.5627594 299.58018494 C-76.38619957 298.40910428 -76.38619957 298.40910428 -76.20607287 297.21436542 C-75.74171649 294.20524174 -75.23065776 291.41267641 -74.265625 288.51757812 C-75.08546875 288.56398438 -75.9053125 288.61039062 -76.75 288.65820312 C-77.82765625 288.69429688 -78.9053125 288.73039062 -80.015625 288.76757812 C-81.08296875 288.81398438 -82.1503125 288.86039062 -83.25 288.90820312 C-86.265625 288.51757812 -86.265625 288.51757812 -88.42089844 286.94628906 C-90.93952386 283.63034336 -90.78245351 281.40448586 -90.796875 277.26757812 C-90.8007019 276.57245117 -90.80452881 275.87732422 -90.80847168 275.16113281 C-90.8111868 273.69529772 -90.80385335 272.22941385 -90.78710938 270.76367188 C-90.76568919 268.52428838 -90.78691943 266.28811226 -90.8125 264.04882812 C-90.80985665 262.62173774 -90.8047315 261.19464934 -90.796875 259.76757812 C-90.79236328 258.47335937 -90.78785156 257.17914063 -90.78320312 255.84570312 C-90.265625 252.51757812 -90.265625 252.51757812 -88.50292969 250.08886719 C-86.01574854 248.34208654 -84.93258993 248.04137913 -81.9375 248.12695312 C-81.2165918 248.13694336 -80.49568359 248.14693359 -79.75292969 248.15722656 C-78.84961914 248.19364258 -77.94630859 248.23005859 -77.015625 248.26757812 C-75.50030904 248.31305337 -73.98494374 248.35690211 -72.46954346 248.3994751 C-71.28842924 248.43278616 -71.28842924 248.43278616 -70.08345413 248.46677017 C-69.48357052 248.4835368 -68.8836869 248.50030342 -68.265625 248.51757812 C-68.10707031 247.25140152 -67.94851562 245.98522491 -67.78515625 244.68067932 C-65.53173294 226.93117608 -62.909958 209.239273 -60.265625 191.54492188 C-60.02700606 189.94676962 -59.78839942 188.34861554 -59.54980469 186.75045967 C-58.55816624 180.11046909 -57.56538629 173.47065108 -56.56933594 166.83132076 C-55.15279912 157.38901345 -53.74339283 147.94570322 -52.34362793 138.50089449 C-51.35113902 131.80801426 -50.35080739 125.11633491 -49.34460449 118.42550284 C-48.74648624 114.44692001 -48.15175281 110.46790186 -47.56542969 106.48756218 C-47.01621417 102.76035141 -46.45728465 99.03472632 -45.89089966 95.3100872 C-45.68537989 93.94728924 -45.48334741 92.58395993 -45.28512573 91.22008133 C-45.01341369 89.35432846 -44.72772152 87.49062769 -44.44140625 85.62705994 C-44.28583252 84.58580932 -44.13025879 83.5445587 -43.9699707 82.47175503 C-43.17612098 79.14217906 -41.97795627 76.47609119 -40.265625 73.51757812 C-35.77212612 71.27082868 -29.6601392 72.2490121 -24.66259766 72.22241211 C-22.40595809 72.20519511 -20.15078263 72.1613069 -17.89453125 72.1171875 C-16.4583441 72.10706053 -15.0221445 72.09854443 -13.5859375 72.09179688 C-12.27898926 72.07721436 -10.97204102 72.06263184 -9.62548828 72.04760742 C-5.62555024 72.60711045 -4.72578771 73.40017986 -2.265625 76.51757812 C-0.55132614 85.50735052 -3.07536714 95.51882562 -4.46875 104.47558594 C-4.70596204 106.04372345 -4.94238989 107.61197975 -5.17810059 109.18034363 C-5.8147867 113.4018065 -6.46231439 117.62154019 -7.11192322 121.84103107 C-7.7909722 126.26428659 -8.45986955 130.68907698 -9.12988281 135.1137085 C-10.39774336 143.4761129 -11.67461978 151.83711407 -12.95480728 160.19763923 C-14.41285189 169.72266459 -15.86073823 179.24922538 -17.30780792 188.77592325 C-20.28251322 208.35819936 -23.27119521 227.93830779 -26.265625 247.51757812 C-10.425625 248.01257813 -10.425625 248.01257813 5.734375 248.51757812 C5.734375 179.87757813 5.734375 111.23757812 5.734375 40.51757812 C1.774375 40.51757812 -2.185625 40.51757812 -6.265625 40.51757812 C-10.81828993 35.96491319 -10.7756724 35.34969418 -10.796875 29.26757812 C-10.80261536 28.2248877 -10.80261536 28.2248877 -10.80847168 27.16113281 C-10.8111868 25.69529772 -10.80385335 24.22941385 -10.78710938 22.76367188 C-10.76568919 20.52428838 -10.78691943 18.28811226 -10.8125 16.04882812 C-10.80985665 14.62173774 -10.8047315 13.19464934 -10.796875 11.76757812 C-10.79236328 10.47335937 -10.78785156 9.17914063 -10.78320312 7.84570312 C-9.77068552 1.33502391 -6.15572935 0.01755352 0 0 Z M5.734375 16.51757812 C5.734375 19.15757813 5.734375 21.79757813 5.734375 24.51757812 C18.934375 24.51757812 32.134375 24.51757812 45.734375 24.51757812 C45.734375 21.87757812 45.734375 19.23757812 45.734375 16.51757812 C32.534375 16.51757812 19.334375 16.51757812 5.734375 16.51757812 Z M21.734375 40.51757812 C21.734375 109.15757813 21.734375 177.79757813 21.734375 248.51757812 C24.374375 248.51757812 27.014375 248.51757812 29.734375 248.51757812 C29.734375 179.87757813 29.734375 111.23757812 29.734375 40.51757812 C27.094375 40.51757812 24.454375 40.51757812 21.734375 40.51757812 Z M-27.265625 88.51757812 C-30.39573021 109.23119812 -33.52499777 129.94494451 -36.65325928 150.65884304 C-38.10567882 160.27595913 -39.55837581 169.89303317 -41.01171875 179.51000977 C-42.27797422 187.88900669 -43.54371646 196.26808095 -44.80883408 204.64724976 C-45.4791506 209.08678943 -46.14972976 213.52628909 -46.82092285 217.96569633 C-47.45191316 222.13924891 -48.08222022 226.31290407 -48.71199036 230.48664093 C-48.94393943 232.02302715 -49.17614381 233.55937485 -49.40861511 235.09568214 C-49.72458414 237.18404287 -50.03965641 239.2725369 -50.35449219 241.36106873 C-50.53147644 242.53266761 -50.70846069 243.70426649 -50.89080811 244.91136837 C-51.28935037 247.24371008 -51.28935037 247.24371008 -51.265625 248.51757812 C-48.955625 248.51757812 -46.645625 248.51757812 -44.265625 248.51757812 C-41.37482236 233.02466425 -39.07191072 217.43901467 -36.72093225 201.8574636 C-36.2593619 198.79990486 -35.79650166 195.74254192 -35.33366746 192.68517429 C-34.24290275 185.47961475 -33.15431528 178.27372867 -32.06713867 171.06762695 C-30.94715598 163.64433957 -29.82343178 156.22162522 -28.69792205 148.79917401 C-27.72758101 142.39914386 -26.75952251 135.99877132 -25.79330605 129.59811717 C-25.21785991 125.78625255 -24.64155344 121.97452315 -24.06304359 118.16312218 C-23.52111823 114.59208294 -22.98204354 111.02062491 -22.44517517 107.44882202 C-22.15375187 105.51476215 -21.85941058 103.58114267 -21.56498718 101.64753723 C-21.39262543 100.49703888 -21.22026367 99.34654053 -21.04267883 98.16117859 C-20.89171407 97.16191188 -20.7407493 96.16264517 -20.58520985 95.13309765 C-20.18476776 92.29499503 -20.18476776 92.29499503 -20.265625 88.51757812 C-22.575625 88.51757812 -24.885625 88.51757812 -27.265625 88.51757812 Z M71.734375 88.51757812 C73.27498061 104.53182522 75.72963356 120.4120472 78.14474225 136.31201816 C78.72706222 140.14989953 79.30575054 143.98832882 79.88499451 147.82667542 C80.85502916 154.25079178 81.8278799 160.67447672 82.80249023 167.09790039 C83.92870887 174.52076252 85.05046072 181.94428947 86.16988045 189.36817974 C87.25128851 196.53934315 88.33571058 203.71004758 89.42155266 210.88054085 C89.88222867 213.9229909 90.34186336 216.96559555 90.80066109 220.00832939 C91.33913479 223.57850548 91.88024772 227.1482717 92.42342377 230.71773529 C92.71721934 232.65260397 93.00838695 234.58787111 93.29948425 236.52314758 C93.47466583 237.67082611 93.64984741 238.81850464 93.83033752 240.0009613 C93.98167932 240.99985099 94.13302111 241.99874067 94.28894901 243.02789974 C94.69389348 245.63648347 94.69389348 245.63648347 95.734375 248.51757812 C98.044375 248.51757812 100.354375 248.51757812 102.734375 248.51757812 C100.98742808 236.66296016 99.2371502 224.80883573 97.484375 212.95507812 C97.35212021 212.06064625 97.21986542 211.16621437 97.08360291 210.2446785 C92.77887771 181.13871553 88.41144993 152.04267968 83.984375 122.95507812 C83.85115341 122.07974804 83.71793182 121.20441795 83.58067322 120.30256271 C81.96785799 109.70716821 80.35250438 99.11216234 78.734375 88.51757812 C76.424375 88.51757812 74.114375 88.51757812 71.734375 88.51757812 Z M-74.265625 264.51757812 C-74.265625 267.15757812 -74.265625 269.79757812 -74.265625 272.51757812 C-8.265625 272.51757812 57.734375 272.51757812 125.734375 272.51757812 C125.734375 269.87757813 125.734375 267.23757813 125.734375 264.51757812 C59.734375 264.51757812 -6.265625 264.51757812 -74.265625 264.51757812 Z M-57.265625 288.51757812 C-64.32522322 333.42793459 -71.14464969 378.37468605 -77.91678894 423.32913011 C-78.72451648 428.69017534 -79.533768 434.05098917 -80.34362793 439.41171265 C-81.34458035 446.03779928 -82.34327815 452.66422123 -83.33916098 459.29107177 C-83.85694916 462.73635142 -84.37564987 466.18148715 -84.89675713 469.62626648 C-85.46918138 473.41075736 -86.03695162 477.19593804 -86.60424805 480.98120117 C-86.77400272 482.099061 -86.9437574 483.21692083 -87.11865616 484.3686552 C-87.34720354 485.90141204 -87.34720354 485.90141204 -87.58036804 487.46513367 C-87.71356791 488.35001811 -87.84676779 489.23490255 -87.98400402 490.14660168 C-88.34425791 492.78165068 -88.34425791 492.78165068 -88.265625 496.51757812 C-85.955625 496.51757812 -83.645625 496.51757812 -81.265625 496.51757812 C-77.22103698 469.84111658 -73.17897225 443.16427378 -69.13993073 416.48697186 C-67.26457551 404.10091375 -65.38838737 391.71498287 -63.51025391 379.3293457 C-61.87372829 368.5370141 -60.2387496 357.74444949 -58.60564661 346.95159942 C-57.74047213 341.23420332 -56.87451092 335.51692884 -56.00669861 329.79993248 C-55.19057816 324.42330865 -54.37652018 319.04637667 -53.56406975 313.66919708 C-53.26491314 311.69173138 -52.96499147 309.71438124 -52.66426277 307.73715401 C-52.25496994 305.04538469 -51.84838813 302.35321967 -51.44250488 299.66093445 C-51.32188549 298.87202857 -51.20126609 298.0831227 -51.07699156 297.27031058 C-50.63457725 294.32019569 -50.265625 291.50563269 -50.265625 288.51757812 C-52.575625 288.51757812 -54.885625 288.51757812 -57.265625 288.51757812 Z M-33.265625 288.51757812 C-35.22140672 301.11219563 -35.22140672 301.11219563 -37.17578125 313.70703125 C-37.97205743 318.84064397 -38.7685017 323.97423024 -39.56591797 329.10766602 C-40.20847789 333.2442682 -40.85030812 337.380983 -41.49162292 341.5177784 C-41.73697175 343.09953952 -41.98258779 344.68125922 -42.22846985 346.26293755 C-42.57163111 348.47067562 -42.91385965 350.67855634 -43.25585938 352.88647461 C-43.5489801 354.77510475 -43.5489801 354.77510475 -43.84802246 356.70188904 C-44.15067949 358.60281144 -44.15067949 358.60281144 -44.265625 360.51757812 C-27.765625 360.51757812 -11.265625 360.51757812 5.734375 360.51757812 C5.734375 336.75757813 5.734375 312.99757813 5.734375 288.51757812 C-7.135625 288.51757812 -20.005625 288.51757812 -33.265625 288.51757812 Z M21.734375 288.51757812 C21.734375 312.27757812 21.734375 336.03757812 21.734375 360.51757812 C24.374375 360.51757812 27.014375 360.51757812 29.734375 360.51757812 C29.734375 336.75757813 29.734375 312.99757813 29.734375 288.51757812 C27.094375 288.51757812 24.454375 288.51757812 21.734375 288.51757812 Z M45.734375 288.51757812 C45.734375 312.27757812 45.734375 336.03757812 45.734375 360.51757812 C62.234375 360.51757812 78.734375 360.51757812 95.734375 360.51757812 C93.98260714 348.73127206 93.98260714 348.73127206 92.22851562 336.9453125 C91.51238305 332.13706952 90.79652038 327.32878746 90.08227539 322.52026367 C89.50630002 318.64273221 88.9291056 314.76538399 88.35107231 310.8881588 C88.13096297 309.41028974 87.91128992 307.93235564 87.69206429 306.45435524 C87.38449397 304.38126051 87.07536095 302.30840432 86.76586914 300.2355957 C86.50272667 298.46687859 86.50272667 298.46687859 86.23426819 296.66242981 C85.80089476 293.93605705 85.27577351 291.22457066 84.734375 288.51757812 C71.864375 288.51757812 58.994375 288.51757812 45.734375 288.51757812 Z M101.734375 288.51757812 C104.29144861 309.47659329 107.51898119 330.33418011 110.6925714 351.2065208 C111.47102617 356.32976739 112.24674751 361.45342788 113.02278137 366.57704163 C114.48700699 376.24158127 115.95362599 385.90575607 117.42114478 395.56979614 C119.09417158 406.58797157 120.76446959 417.60656013 122.43455923 428.62518108 C125.86483422 451.25643512 129.29846837 473.88717845 132.734375 496.51757812 C135.044375 496.51757812 137.354375 496.51757812 139.734375 496.51757812 C138.4498408 484.14761279 136.83041766 471.8639951 134.95288086 459.57104492 C134.67804969 457.75391093 134.40352807 455.93673009 134.12928772 454.11950684 C133.39289877 449.24593562 132.65216319 444.37303459 131.9105041 439.50026298 C131.13180298 434.3794339 130.35699065 429.25801631 129.5816803 424.13667297 C128.28200695 415.55535345 126.97968705 406.9744391 125.67553711 398.39379883 C124.00198584 387.38259191 122.3328696 376.37071743 120.66512203 365.35863018 C119.22772305 355.86776841 117.78830196 346.37721349 116.3485558 336.88670754 C115.88699247 333.84360152 115.42570764 330.80045337 114.96446037 327.75729942 C114.24085403 322.98405591 113.51598612 318.21100558 112.79013634 313.43810272 C112.52407469 311.68739984 112.25841161 309.93663633 111.99317551 308.18580818 C111.63127095 305.79738389 111.2679066 303.40918615 110.90415955 301.02104187 C110.79949007 300.3280588 110.6948206 299.63507573 110.58697933 298.92109317 C110.05399687 295.43295639 109.46020981 291.97092705 108.734375 288.51757812 C106.424375 288.51757812 104.114375 288.51757812 101.734375 288.51757812 Z M-46.265625 376.51757812 C-46.595625 379.15757812 -46.925625 381.79757812 -47.265625 384.51757812 C0.914375 384.51757812 49.094375 384.51757812 98.734375 384.51757812 C98.404375 381.87757813 98.074375 379.23757813 97.734375 376.51757812 C50.214375 376.51757812 2.694375 376.51757812 -46.265625 376.51757812 Z " fill="#000000" transform="translate(230.265625,-0.517578125)"/>
</svg>
