<?xml version="1.0" encoding="iso-8859-1"?>
<!-- Uploaded to: SVG Repo, www.svgrepo.com, Generator: SVG Repo Mixer Tools -->
<svg version="1.1" id="Layer_1" xmlns="http://www.w3.org/2000/svg" xmlns:xlink="http://www.w3.org/1999/xlink" 
	 viewBox="0 0 512 512" xml:space="preserve">
<path style="fill:#4D4D4D;" d="M416.681,122.553H256V280.5h193.362V155.234C449.362,137.26,434.655,122.553,416.681,122.553z"/>
<path style="fill:#737373;" d="M95.319,122.553c-17.974,0-32.681,14.706-32.681,32.681V280.5H256V122.553H95.319z"/>
<polygon style="fill:#EEEEEE;" points="394.894,8.181 394.894,280.5 285.957,280.5 362.213,8.181 "/>
<rect x="117.106" y="8.181" style="fill:#FFFFFF;" width="245.106" height="272.319"/>
<path style="fill:#02ACAB;" d="M460.255,236.925h-32.681v130.723l76.255-43.574V280.5
	C503.83,256.534,484.221,236.925,460.255,236.925z"/>
<path style="fill:#42C8C6;" d="M471.149,280.5v119.83L8.17,324.074V280.5c0-23.966,19.609-43.574,43.574-43.574h375.83
	C451.54,236.925,471.149,256.534,471.149,280.5z"/>
<polygon style="fill:#B9B9B9;" points="503.83,324.074 503.83,503.819 471.149,503.819 449.362,413.947 471.149,324.074 "/>
<polygon style="fill:#DCDCDC;" points="471.149,324.074 471.149,503.819 427.574,503.819 256,422.117 84.426,503.819 8.17,503.819 
	8.17,324.074 "/>
<polygon style="fill:#4D4D4D;" points="427.574,389.436 427.574,422.117 362.213,461.018 394.894,389.436 "/>
<polygon style="fill:#737373;" points="394.894,389.436 394.894,422.117 239.66,454.798 84.426,422.117 84.426,389.436 "/>
<polygon style="fill:#969696;" points="427.574,422.117 427.574,503.819 394.894,503.819 362.213,462.968 394.894,422.117 "/>
<rect x="84.426" y="422.117" style="fill:#B9B9B9;" width="310.468" height="81.702"/>
<path d="M460.255,228.755h-2.723v-73.521c0-17.221-10.936-32.69-27.213-38.492c-4.252-1.515-8.924,0.703-10.439,4.952
	c-1.515,4.251,0.703,8.924,4.952,10.439c9.786,3.488,16.36,12.772,16.36,23.1v73.521h-38.128V8.181c0-4.513-3.657-8.17-8.17-8.17
	H117.106c-4.512,0-8.17,3.657-8.17,8.17v220.574H70.809v-73.521c0-10.328,6.575-19.612,16.361-23.1
	c4.25-1.515,6.468-6.189,4.952-10.439c-1.515-4.251-6.191-6.469-10.439-4.952c-16.277,5.802-27.214,21.271-27.214,38.492v73.521
	h-2.723C23.213,228.755,0,251.968,0,280.5v223.319c0,4.513,3.658,8.17,8.17,8.17h495.66c4.513,0,8.17-3.657,8.17-8.17V280.5
	C512,251.968,488.787,228.755,460.255,228.755z M125.277,16.351h261.447v212.404H125.277V16.351z M419.404,413.947H92.596v-16.34
	h326.809V413.947z M92.596,430.287h326.809v65.362H92.596V430.287z M495.66,495.649h-59.915V389.436c0-4.513-3.657-8.17-8.17-8.17
	H84.426c-4.512,0-8.17,3.657-8.17,8.17v106.213H16.34V280.5c0-19.522,15.883-35.404,35.404-35.404h408.511
	c19.522,0,35.404,15.882,35.404,35.404V495.649z"/>
<path d="M187.915,87.149h136.17c4.513,0,8.17-3.657,8.17-8.17c0-4.513-3.657-8.17-8.17-8.17h-136.17c-4.512,0-8.17,3.657-8.17,8.17
	C179.745,83.492,183.403,87.149,187.915,87.149z"/>
<path d="M324.085,114.383h-136.17c-4.512,0-8.17,3.657-8.17,8.17s3.658,8.17,8.17,8.17h136.17c4.513,0,8.17-3.657,8.17-8.17
	S328.598,114.383,324.085,114.383z"/>
<path d="M271.979,157.957h-84.064c-4.512,0-8.17,3.657-8.17,8.17s3.658,8.17,8.17,8.17h84.064c4.513,0,8.17-3.657,8.17-8.17
	S276.492,157.957,271.979,157.957z"/>
<path d="M471.149,315.904H40.851c-4.512,0-8.17,3.657-8.17,8.17c0,4.513,3.658,8.17,8.17,8.17h430.298c4.513,0,8.17-3.657,8.17-8.17
	C479.319,319.561,475.662,315.904,471.149,315.904z"/>
<path d="M427.574,288.67h10.894c4.513,0,8.17-3.657,8.17-8.17c0-4.513-3.657-8.17-8.17-8.17h-10.894c-4.513,0-8.17,3.657-8.17,8.17
	C419.404,285.013,423.061,288.67,427.574,288.67z"/>
</svg>