<?xml version="1.0" encoding="iso-8859-1"?>
<!-- Uploaded to: SVG Repo, www.svgrepo.com, Generator: SVG Repo Mixer Tools -->
<svg fill="#000000" height="800px" width="800px" version="1.1" id="Layer_1" xmlns="http://www.w3.org/2000/svg" xmlns:xlink="http://www.w3.org/1999/xlink" 
	 viewBox="0 0 512 512" xml:space="preserve">
<g>
	<g>
		<path d="M64,320c-8.832,0-16,7.152-16,16v16c0,8.848,7.168,16,16,16c8.832,0,16-7.152,16-16v-16C80,327.152,72.832,320,64,320z"/>
	</g>
</g>
<g>
	<g>
		<path d="M448,320c-8.832,0-16,7.152-16,16v16c0,8.848,7.168,16,16,16c8.832,0,16-7.152,16-16v-16C464,327.152,456.832,320,448,320
			z"/>
	</g>
</g>
<g>
	<g>
		<path d="M496,144H16c-8.832,0-16,7.152-16,16v176c0,8.848,7.168,16,16,16h480c8.832,0,16-7.152,16-16V160
			C512,151.152,504.832,144,496,144z M480,320H32V176h448V320z"/>
	</g>
</g>
<g>
	<g>
		<path d="M288,144h-64c-8.832,0-16,7.152-16,16v176c0,8.848,7.168,16,16,16h64c8.832,0,16-7.152,16-16V160
			C304,151.152,296.832,144,288,144z M272,320h-32V176h32V320z"/>
	</g>
</g>
<g>
	<g>
		<path d="M176,208c-8.832,0-16,7.152-16,16v48c0,8.848,7.168,16,16,16c8.832,0,16-7.152,16-16v-48C192,215.152,184.832,208,176,208
			z"/>
	</g>
</g>
<g>
	<g>
		<path d="M336,208c-8.832,0-16,7.152-16,16v48c0,8.848,7.168,16,16,16c8.832,0,16-7.152,16-16v-48C352,215.152,344.832,208,336,208
			z"/>
	</g>
</g>
</svg>