<?xml version="1.0" encoding="iso-8859-1"?>
<!-- Uploaded to: SVG Repo, www.svgrepo.com, Generator: SVG Repo Mixer Tools -->
<svg height="800px" width="800px" version="1.1" id="Layer_1" xmlns="http://www.w3.org/2000/svg" xmlns:xlink="http://www.w3.org/1999/xlink" 
	 viewBox="0 0 511.992 511.992" xml:space="preserve">
<g>
	<path style="fill:#CCD1D9;" d="M149.33,213.332h-32c-5.89,0-10.671-4.781-10.671-10.672s4.781-10.664,10.671-10.664h32
		c5.891,0,10.664,4.773,10.664,10.664S155.221,213.332,149.33,213.332z"/>
	<path style="fill:#CCD1D9;" d="M394.646,213.332h-32c-5.875,0-10.656-4.781-10.656-10.672s4.781-10.664,10.656-10.664h32
		c5.906,0,10.687,4.773,10.687,10.664S400.553,213.332,394.646,213.332z"/>
	<path style="fill:#CCD1D9;" d="M394.646,490.648H117.33c-5.89,0-10.671-4.766-10.671-10.656s4.781-10.656,10.671-10.656h277.316
		c5.906,0,10.687,4.766,10.687,10.656S400.553,490.648,394.646,490.648z"/>
</g>
<path style="fill:#5D9CEC;" d="M362.646,0H149.33c-5.891,0-10.672,4.773-10.672,10.664v437.328c0,5.891,4.781,10.656,10.672,10.656
	h213.316c5.906,0,10.688-4.766,10.688-10.656V10.664C373.334,4.773,368.553,0,362.646,0z"/>
<g>
	<path style="fill:#E6E9ED;" d="M117.33,511.992c-5.89,0-10.671-4.781-10.671-10.656V106.663c0-5.891,4.781-10.664,10.671-10.664
		c5.891,0,10.664,4.773,10.664,10.664v394.673C127.994,507.211,123.221,511.992,117.33,511.992z"/>
	<path style="fill:#E6E9ED;" d="M394.646,511.992c-5.875,0-10.656-4.781-10.656-10.656V106.663c0-5.891,4.781-10.664,10.656-10.664
		c5.906,0,10.687,4.773,10.687,10.664v394.673C405.333,507.211,400.553,511.992,394.646,511.992z"/>
</g>
<polygon style="opacity:0.1;fill:#FFFFFF;enable-background:new    ;" points="254.656,458.648 193.329,458.648 257.328,0 
	318.646,0 "/>
</svg>