<?xml version="1.0" encoding="iso-8859-1"?>
<!-- Uploaded to: SVG Repo, www.svgrepo.com, Generator: SVG Repo Mixer Tools -->
<svg height="800px" width="800px" version="1.1" id="Layer_1" xmlns="http://www.w3.org/2000/svg" xmlns:xlink="http://www.w3.org/1999/xlink" 
	 viewBox="0 0 503.607 503.607" xml:space="preserve">
<g transform="translate(1 1)">
	<path style="fill:#FFE100;" d="M317.951,494.213H183.656c-9.233,0-16.787-7.554-16.787-16.787V24.18
		c0-9.233,7.554-16.787,16.787-16.787h134.295c9.233,0,16.787,7.554,16.787,16.787v453.246
		C334.738,486.659,327.184,494.213,317.951,494.213"/>
	<g>
		<polygon style="fill:#63D3FD;" points="200.443,469.033 301.164,469.033 301.164,435.459 200.443,435.459 		"/>
		<path style="fill:#63D3FD;" d="M299.485,133.295h-97.364c-12.59-26.859-12.59-57.075,0-83.934h98.203
			C312.915,76.22,312.915,106.436,299.485,133.295"/>
	</g>
	<path style="fill:#3DB9F9;" d="M299.485,49.361h-16.787c12.59,26.859,12.59,57.075,0,83.934h16.787
		C312.915,106.436,312.915,76.22,299.485,49.361"/>
	<path style="fill:#63D3FD;" d="M299.485,267.59h-97.364c-12.59-26.859-12.59-57.075,0-83.934h98.203
		C312.915,210.515,312.915,240.731,299.485,267.59"/>
	<path style="fill:#3DB9F9;" d="M299.485,183.656h-16.787c12.59,26.859,12.59,57.075,0,83.934h16.787
		C312.915,240.731,312.915,210.515,299.485,183.656"/>
	<path style="fill:#63D3FD;" d="M299.485,401.885h-97.364c-12.59-26.859-12.59-57.075,0-83.934h98.203
		C312.915,344.81,312.915,375.026,299.485,401.885"/>
	<path style="fill:#3DB9F9;" d="M299.485,317.951h-16.787c12.59,26.859,12.59,57.075,0,83.934h16.787
		C312.915,375.026,312.915,344.81,299.485,317.951"/>
	<path style="fill:#FFA800;" d="M317.951,7.393h-16.787c9.233,0,16.787,7.554,16.787,16.787v453.246
		c0,9.233-7.554,16.787-16.787,16.787h16.787c9.233,0,16.787-7.554,16.787-16.787V24.18C334.738,14.948,327.184,7.393,317.951,7.393
		"/>
	<path style="fill:#FFFFFF;" d="M183.656,7.393h16.787c-9.233,0-16.787,7.554-16.787,16.787v453.246
		c0,9.233,7.554,16.787,16.787,16.787h-16.787c-9.233,0-16.787-7.554-16.787-16.787V24.18
		C166.869,14.948,174.423,7.393,183.656,7.393"/>
	<path d="M317.951,502.607H183.656c-14.269,0-25.18-10.911-25.18-25.18V24.18c0-14.269,10.911-25.18,25.18-25.18h134.295
		c14.269,0,25.18,10.911,25.18,25.18v453.246C343.131,491.695,332.22,502.607,317.951,502.607z M183.656,15.787
		c-5.036,0-8.393,4.197-8.393,8.393v453.246c0,5.036,3.357,8.393,8.393,8.393h134.295c5.036,0,8.393-3.357,8.393-8.393V24.18
		c0-5.036-3.357-8.393-8.393-8.393H183.656z"/>
	<path d="M301.164,477.426H200.443c-5.036,0-8.393-3.357-8.393-8.393v-33.574c0-5.036,3.357-8.393,8.393-8.393h100.721
		c5.036,0,8.393,3.357,8.393,8.393v33.574C309.557,474.069,306.2,477.426,301.164,477.426z M208.836,460.639h83.934v-16.787h-83.934
		V460.639z"/>
	<path d="M225.623,91.328c-5.036,0-8.393-3.357-8.393-8.393v-8.393c0-5.036,3.357-8.393,8.393-8.393s8.393,3.357,8.393,8.393v8.393
		C234.016,87.97,230.659,91.328,225.623,91.328z"/>
	<path d="M275.984,91.328c-5.036,0-8.393-3.357-8.393-8.393v-8.393c0-5.036,3.357-8.393,8.393-8.393s8.393,3.357,8.393,8.393v8.393
		C284.377,87.97,281.02,91.328,275.984,91.328z"/>
	<path d="M234.016,116.508L234.016,116.508c0-9.233,7.554-16.787,16.787-16.787c9.233,0,16.787,7.554,16.787,16.787H234.016z"/>
	<path d="M299.485,141.689h-97.364c-3.357,0-5.875-1.679-7.554-5.036c-14.269-28.538-14.269-62.111,0-90.649
		c0.839-3.357,4.197-5.036,7.554-5.036h98.203c3.357,0,5.875,1.679,7.554,5.036c14.269,29.377,14.269,62.111,0,91.489
		C306.2,140.01,302.843,141.689,299.485,141.689z M207.157,124.902h87.292c9.233-21.823,9.233-45.325,0-67.148h-87.292
		C197.925,79.577,197.925,103.079,207.157,124.902z"/>
	<path d="M225.623,225.623c-5.036,0-8.393-3.357-8.393-8.393v-8.393c0-5.036,3.357-8.393,8.393-8.393s8.393,3.357,8.393,8.393v8.393
		C234.016,222.266,230.659,225.623,225.623,225.623z"/>
	<path d="M275.984,225.623c-5.036,0-8.393-3.357-8.393-8.393v-8.393c0-5.036,3.357-8.393,8.393-8.393s8.393,3.357,8.393,8.393v8.393
		C284.377,222.266,281.02,225.623,275.984,225.623z"/>
	<path d="M234.016,250.803L234.016,250.803c0-9.233,7.554-16.787,16.787-16.787c9.233,0,16.787,7.554,16.787,16.787H234.016z"/>
	<path d="M299.485,275.984h-97.364c-3.357,0-5.875-1.679-7.554-5.036c-14.269-28.538-14.269-62.111,0-90.649
		c0.839-3.357,4.197-5.036,7.554-5.036h98.203c3.357,0,5.875,1.679,7.554,5.036c14.269,29.377,14.269,62.111,0,91.489
		C306.2,274.305,302.843,275.984,299.485,275.984z M207.157,259.197h87.292c9.233-21.823,9.233-45.325,0-67.148h-87.292
		C197.925,213.872,197.925,237.374,207.157,259.197z"/>
	<path d="M225.623,359.918c-5.036,0-8.393-3.357-8.393-8.393v-8.393c0-5.036,3.357-8.393,8.393-8.393s8.393,3.357,8.393,8.393v8.393
		C234.016,356.561,230.659,359.918,225.623,359.918z"/>
	<path d="M275.984,359.918c-5.036,0-8.393-3.357-8.393-8.393v-8.393c0-5.036,3.357-8.393,8.393-8.393s8.393,3.357,8.393,8.393v8.393
		C284.377,356.561,281.02,359.918,275.984,359.918z"/>
	<path d="M234.016,385.098L234.016,385.098c0-9.233,7.554-16.787,16.787-16.787c9.233,0,16.787,7.554,16.787,16.787H234.016z"/>
	<path d="M299.485,410.279h-97.364c-3.357,0-5.875-1.679-7.554-5.036c-14.269-28.538-14.269-62.111,0-90.649
		c0.839-3.357,4.197-5.036,7.554-5.036h98.203c3.357,0,5.875,1.679,7.554,5.036c14.269,29.377,14.269,62.111,0,91.489
		C306.2,408.6,302.843,410.279,299.485,410.279z M207.157,393.492h87.292c9.233-21.823,9.233-45.325,0-67.148h-87.292
		C197.925,348.167,197.925,371.669,207.157,393.492z"/>
</g>
</svg>