<?xml version="1.0" encoding="iso-8859-1"?>
<!-- Uploaded to: SVG Repo, www.svgrepo.com, Generator: SVG Repo Mixer Tools -->
<svg fill="#000000" height="800px" width="800px" version="1.1" id="Layer_1" xmlns="http://www.w3.org/2000/svg" xmlns:xlink="http://www.w3.org/1999/xlink" 
	 viewBox="0 0 512 512" xml:space="preserve">
<g>
	<g>
		<path d="M84.956,143.216C84.2,142.436,83.168,142,82.084,142H52c-2.208,0-4,1.788-4,4v244c0,2.212,1.792,4,4,4h22.664
			c2.16,0,3.928-1.72,4-3.876l7.42-244C86.116,145.04,85.712,143.996,84.956,143.216z M70.78,386H56V150h21.96L70.78,386z"/>
	</g>
</g>
<g>
	<g>
		<path d="M452,142h-27.992c-1.084,0-2.116,0.432-2.872,1.212c-0.756,0.78-1.16,1.824-1.128,2.908l7.416,244
			c0.068,2.16,1.836,3.88,4,3.88H452c2.208,0,4-1.788,4-4V146C456,143.788,454.208,142,452,142z M448,386h-12.692l-7.176-236H448
			V386z"/>
	</g>
</g>
<g>
	<g>
		<path d="M508,118H4c-2.208,0-4,1.788-4,4v24c0,2.212,1.792,4,4,4h376c2.208,0,4-1.788,4-4c0-2.212-1.792-4-4-4H8v-16h496v16h-80
			c-2.208,0-4,1.788-4,4c0,2.212,1.792,4,4,4h84c2.208,0,4-1.788,4-4v-24C512,119.788,510.208,118,508,118z"/>
	</g>
</g>
<g>
	<g>
		<path d="M424,218H80c-2.208,0-4,1.788-4,4c0,2.212,1.792,4,4,4h344c2.208,0,4-1.788,4-4C428,219.788,426.208,218,424,218z"/>
	</g>
</g>
</svg>