<?xml version="1.0" encoding="iso-8859-1"?>
<!-- Uploaded to: SVG Repo, www.svgrepo.com, Generator: SVG Repo Mixer Tools -->
<svg fill="#000000" height="800px" width="800px" version="1.1" id="Layer_1" xmlns="http://www.w3.org/2000/svg" xmlns:xlink="http://www.w3.org/1999/xlink" 
	 viewBox="0 0 502.4 502.4" xml:space="preserve">
<g>
	<g>
		<path d="M410.658,400V211.2c-0.001-44.8-27.734-82.133-67.201-97.067V42.667h22.4c10.667,0,20.267-9.6,20.267-21.333
			S376.524,0,364.791,0h-227.2c-11.733,0-21.333,9.6-21.333,21.333s9.6,21.333,21.333,21.333h22.4v71.467
			c-39.467,14.933-68.267,53.333-68.267,97.067v187.733c0,57.6,46.933,103.467,103.467,103.467h113.067
			C364.791,502.4,411.725,456.534,410.658,400z M202.657,42.667h98.133v65.067h-98.133V42.667z M369.057,400
			c0,34.133-27.733,61.867-61.867,61.867h-112c-34.133,0-61.867-27.733-61.867-61.867V211.2c0-34.133,27.733-61.867,61.867-61.867
			h112c34.133,0,61.867,27.733,61.867,61.867V400z"/>
	</g>
</g>
</svg>